<svg width="32" height="32" viewBox="0 0 32 32" fill="none" xmlns="http://www.w3.org/2000/svg">
<path d="M12.0607 13.518C15.203 12.0152 17.6622 9.46489 19.074 6.27704C18.1632 5.32068 16.9791 4.63757 15.704 4.2277L15.0209 4C14.9753 4.09108 14.9298 4.22771 14.9298 4.31879C13.8368 7.41556 11.6053 9.9203 8.59962 11.3321C6.50475 12.334 4.95636 14.1556 4.2277 16.3416L4 17.0247C4.09108 17.0702 4.22771 17.1157 4.31879 17.1157C5.18406 17.4345 6.04934 17.8444 6.86907 18.3453C8.00759 16.296 9.82922 14.5655 12.0607 13.518Z" fill="#121212"/>
<path d="M25.2676 13.7001C23.5826 16.2504 21.2601 18.2998 18.391 19.666C16.0684 20.759 14.2923 22.8083 13.4726 25.2675L13.2449 26.0417C14.1101 26.8159 15.1576 27.4079 16.2961 27.7723L16.9792 28C17.0248 27.9089 17.0703 27.7723 17.0703 27.6812C18.1633 24.5844 20.3948 22.0797 23.4005 20.6679C25.4953 19.666 27.0893 17.8444 27.7724 15.6584L28.0001 14.9753C27.0437 14.7021 26.1329 14.2466 25.2676 13.7001Z" fill="#121212"/>
<path d="M11.4233 23.6735C12.5619 20.941 14.6567 18.7095 17.3436 17.4344C19.8028 16.2503 21.8522 14.4287 23.2639 12.1972C22.2165 11.1953 21.3512 10.0568 20.7136 8.69057C19.0286 11.7873 16.3873 14.2921 13.1539 15.8405C11.2867 16.7058 9.78386 18.2086 8.87305 20.0302C9.87494 20.9866 10.6947 22.1706 11.3323 23.4913C11.3323 23.4913 11.3778 23.5824 11.4233 23.6735Z" fill="#121212"/>
</svg>
